<?xml version="1.0" encoding="iso-8859-1"?>
<!-- Generator: Adobe Illustrator 19.0.0, SVG Export Plug-In . SVG Version: 6.00 Build 0)  -->
<svg version="1.1" id="Capa_1" xmlns="http://www.w3.org/2000/svg" xmlns:xlink="http://www.w3.org/1999/xlink" x="0px" y="0px"
	 viewBox="0 0 384.229 384.229" style="enable-background:new 0 0 384.229 384.229;" xml:space="preserve">
<circle style="fill:#4DD0E1;" cx="192.075" cy="192.117" r="176"/>
<g>
	<path style="fill:#012E52;" d="M348.595,109.973c-8.168,3.376-12.04,12.736-8.664,20.904
		c33.76,81.536-5.096,175.336-86.624,209.096c-39.248,16.248-82.536,16.328-121.872,0.224c-39.792-16.36-70.736-47.2-87.144-86.84
		c-16.352-39.504-16.36-83.008,0-122.496c16.352-39.488,47.12-70.248,86.616-86.6c39.696-16.432,83.368-16.328,122.976,0.288
		c8.168,3.424,17.528-0.416,20.944-8.56s-0.416-17.528-8.56-20.944c-47.536-19.936-99.952-20.064-147.592-0.352
		c-47.4,19.624-84.312,56.528-103.944,103.92c-19.624,47.384-19.624,99.584,0,146.984c19.688,47.576,56.816,84.584,104.56,104.208
		c23.504,9.624,48.168,14.432,72.832,14.424c24.888,0,49.768-4.896,73.424-14.688c47.4-19.624,84.312-56.528,103.944-103.92
		c19.632-47.384,19.632-99.584,0-146.984C366.115,110.469,356.747,106.581,348.595,109.973z"/>
	<path style="fill:#012E52;" d="M328.347,56.805c-6.24-6.248-16.384-6.248-22.624,0l-113.168,113.16l-29.168-29.168
		c-6.24-6.248-16.384-6.248-22.624,0c-6.248,6.248-6.248,16.376,0,22.624l40.48,40.48c3.12,3.128,7.216,4.688,11.312,4.688
		c4.096,0,8.192-1.56,11.312-4.688l124.48-124.48C334.595,73.181,334.595,63.053,328.347,56.805z"/>
	<path style="fill:#012E52;" d="M220.763,220.805l-28.688,28.68l-28.688-28.68c-6.24-6.248-16.384-6.248-22.624,0
		c-6.248,6.248-6.248,16.376,0,22.624l40,40c3.12,3.128,7.216,4.688,11.312,4.688c4.096,0,8.192-1.56,11.312-4.688l40-40
		c6.248-6.248,6.248-16.376,0-22.624C237.147,214.557,227.003,214.557,220.763,220.805z"/>
</g>
<g>
</g>
<g>
</g>
<g>
</g>
<g>
</g>
<g>
</g>
<g>
</g>
<g>
</g>
<g>
</g>
<g>
</g>
<g>
</g>
<g>
</g>
<g>
</g>
<g>
</g>
<g>
</g>
<g>
</g>
</svg>
