<svg width="24" height="24" xmlns="http://www.w3.org/2000/svg" fill-rule="evenodd" clip-rule="evenodd"><path d="M17.012 18.708l-4.318-1.07-3.981 3.871c-.326.317-.755.491-1.209.491-.85 0-1.504-.691-1.504-1.502v-4.519l-4.13-8.979h-1.37c-.311 0-.5-.26-.5-.5 0-.239.189-.5.5-.5h2.025l4.194 9.132 10.38 2.569c.363-1.544 1.75-2.695 3.404-2.695 1.93 0 3.497 1.567 3.497 3.497s-1.567 3.497-3.497 3.497c-1.861 0-3.385-1.457-3.491-3.292zm-10.012-2.481v4.271c0 .48.612.688 1.017.294l3.534-3.437-4.551-1.128zm13.503 1.026c.69 0 1.25.56 1.25 1.25s-.56 1.25-1.25 1.25-1.25-.56-1.25-1.25.56-1.25 1.25-1.25zm1.497-9.25l-17.483-.003 2.454 5.367c.256.561.756.972 1.356 1.114l6.593 1.571c.805.192 1.644-.132 2.112-.814l4.968-7.235zm-10-1.003h-5v-2h5v2zm6 0h-5v-2h5v2zm-3-3h-5v-2h5v2z"/></svg>